<svg width="20" height="20" viewBox="0 0 20 20" fill="none" xmlns="http://www.w3.org/2000/svg">
<path fill-rule="evenodd" clip-rule="evenodd" d="M5 4.25C5 3.97386 4.77614 3.75 4.5 3.75H3C2.72386 3.75 2.5 3.97386 2.5 4.25V5.75C2.5 6.02614 2.72386 6.25 3 6.25H4.5C4.77614 6.25 5 6.02614 5 5.75V4.25ZM17.5 4.25C17.5 3.97386 17.2761 3.75 17 3.75H6.75C6.47386 3.75 6.25 3.97386 6.25 4.25V5.75C6.25 6.02614 6.47386 6.25 6.75 6.25H17C17.2761 6.25 17.5 6.02614 17.5 5.75V4.25ZM2.5 9.25C2.5 8.97386 2.72386 8.75 3 8.75H4.5C4.77614 8.75 5 8.97386 5 9.25V10.75C5 11.0261 4.77614 11.25 4.5 11.25H3C2.72386 11.25 2.5 11.0261 2.5 10.75V9.25ZM17.5 9.25C17.5 8.97386 17.2761 8.75 17 8.75H6.75C6.47386 8.75 6.25 8.97386 6.25 9.25V10.75C6.25 11.0261 6.47386 11.25 6.75 11.25H17C17.2761 11.25 17.5 11.0261 17.5 10.75V9.25ZM2.5 14.25C2.5 13.9739 2.72386 13.75 3 13.75H4.5C4.77614 13.75 5 13.9739 5 14.25V15.75C5 16.0261 4.77614 16.25 4.5 16.25H3C2.72386 16.25 2.5 16.0261 2.5 15.75V14.25ZM17.5 14.25C17.5 13.9739 17.2761 13.75 17 13.75H6.75C6.47386 13.75 6.25 13.9739 6.25 14.25V15.75C6.25 16.0261 6.47386 16.25 6.75 16.25H17C17.2761 16.25 17.5 16.0261 17.5 15.75V14.25Z" fill="#999999"/>
</svg>
