<svg width="20" height="20" viewBox="0 0 20 20" fill="none" xmlns="http://www.w3.org/2000/svg">
<path d="M10 3.33329C14.1417 3.33329 17.4167 7.13329 16.5167 11.4333C15.95 14.125 13.6833 16.2166 10.9583 16.6C9.63334 16.7833 8.34168 16.5916 7.14168 16.0166C6.91668 15.9083 6.67501 15.8583 6.42501 15.8583C6.26668 15.8583 6.10834 15.8833 5.95834 15.925L4.03334 16.4916C3.71668 16.5833 3.41668 16.2916 3.50834 15.9666L4.09168 13.975C4.20001 13.6 4.15001 13.2083 3.97501 12.85C3.55001 11.95 3.33334 10.9833 3.33334 9.99996C3.33334 6.32496 6.32501 3.33329 10 3.33329ZM10 1.66663C5.40001 1.66663 1.66668 5.39996 1.66668 9.99996C1.66668 11.2833 1.96668 12.4833 2.47501 13.575L1.25834 17.7083C1.07501 18.3333 1.66668 18.925 2.30001 18.7333L6.43334 17.5166C7.81668 18.175 9.40001 18.475 11.0833 18.2583C14.8833 17.7666 17.925 14.6333 18.3 10.825C18.775 5.85829 14.875 1.66663 10 1.66663Z" fill="#6400FF"/>
<path fill-rule="evenodd" clip-rule="evenodd" d="M9.99996 6.66663C9.54163 6.66663 9.16663 7.04163 9.16663 7.49996V9.16663H7.49996C7.04163 9.16663 6.66663 9.54163 6.66663 9.99996C6.66663 10.4583 7.04163 10.8333 7.49996 10.8333H9.16663V12.5C9.16663 12.9583 9.54163 13.3333 9.99996 13.3333C10.4583 13.3333 10.8333 12.9583 10.8333 12.5V10.8333H12.5C12.9583 10.8333 13.3333 10.4583 13.3333 9.99996C13.3333 9.54163 12.9583 9.16663 12.5 9.16663H10.8333V7.49996C10.8333 7.04163 10.4583 6.66663 9.99996 6.66663Z" fill="#6400FF"/>
</svg>
